<svg width="41" height="33" viewBox="0 0 41 33" fill="none" xmlns="http://www.w3.org/2000/svg">
<g filter="url(#filter0_d_46_31)">
<path fill-rule="evenodd" clip-rule="evenodd" d="M3 3H38V24.8502H12.3662L8.0939 29V24.8502H3V3ZM10.4993 17.228C12.1781 17.228 13.5392 15.8251 13.5392 14.0945C13.5392 12.3639 12.1781 10.9609 10.4993 10.9609C8.82036 10.9609 7.45935 12.3639 7.45935 14.0945C7.45935 15.8251 8.82036 17.228 10.4993 17.228ZM20.5227 17.228C22.2016 17.228 23.5626 15.8251 23.5626 14.0945C23.5626 12.3639 22.2016 10.9609 20.5227 10.9609C18.8438 10.9609 17.4828 12.3639 17.4828 14.0945C17.4828 15.8251 18.8438 17.228 20.5227 17.228ZM30.3819 17.228C32.0608 17.228 33.4218 15.8251 33.4218 14.0945C33.4218 12.3639 32.0608 10.9609 30.3819 10.9609C28.703 10.9609 27.342 12.3639 27.342 14.0945C27.342 15.8251 28.703 17.228 30.3819 17.228Z" fill="#B0DFF4" fill-opacity="0.2" shape-rendering="crispEdges"/>
<path d="M13.5392 14.0945C13.5392 15.8251 12.1781 17.228 10.4993 17.228C8.82036 17.228 7.45935 15.8251 7.45935 14.0945C7.45935 12.3639 8.82036 10.9609 10.4993 10.9609C12.1781 10.9609 13.5392 12.3639 13.5392 14.0945Z" fill="#B0DFF4" shape-rendering="crispEdges"/>
<path d="M23.5626 14.0945C23.5626 15.8251 22.2016 17.228 20.5227 17.228C18.8438 17.228 17.4828 15.8251 17.4828 14.0945C17.4828 12.3639 18.8438 10.9609 20.5227 10.9609C22.2016 10.9609 23.5626 12.3639 23.5626 14.0945Z" fill="#B0DFF4" shape-rendering="crispEdges"/>
<path d="M33.4218 14.0945C33.4218 15.8251 32.0608 17.228 30.3819 17.228C28.703 17.228 27.342 15.8251 27.342 14.0945C27.342 12.3639 28.703 10.9609 30.3819 10.9609C32.0608 10.9609 33.4218 12.3639 33.4218 14.0945Z" fill="#B0DFF4" shape-rendering="crispEdges"/>
<path fill-rule="evenodd" clip-rule="evenodd" d="M3 3H38V24.8502H12.3662L8.0939 29V24.8502H3V3ZM10.4993 17.228C12.1781 17.228 13.5392 15.8251 13.5392 14.0945C13.5392 12.3639 12.1781 10.9609 10.4993 10.9609C8.82036 10.9609 7.45935 12.3639 7.45935 14.0945C7.45935 15.8251 8.82036 17.228 10.4993 17.228ZM20.5227 17.228C22.2016 17.228 23.5626 15.8251 23.5626 14.0945C23.5626 12.3639 22.2016 10.9609 20.5227 10.9609C18.8438 10.9609 17.4828 12.3639 17.4828 14.0945C17.4828 15.8251 18.8438 17.228 20.5227 17.228ZM30.3819 17.228C32.0608 17.228 33.4218 15.8251 33.4218 14.0945C33.4218 12.3639 32.0608 10.9609 30.3819 10.9609C28.703 10.9609 27.342 12.3639 27.342 14.0945C27.342 15.8251 28.703 17.228 30.3819 17.228Z" stroke="#B0DFF4" shape-rendering="crispEdges"/>
<path d="M13.5392 14.0945C13.5392 15.8251 12.1781 17.228 10.4993 17.228C8.82036 17.228 7.45935 15.8251 7.45935 14.0945C7.45935 12.3639 8.82036 10.9609 10.4993 10.9609C12.1781 10.9609 13.5392 12.3639 13.5392 14.0945Z" stroke="#B0DFF4" shape-rendering="crispEdges"/>
<path d="M23.5626 14.0945C23.5626 15.8251 22.2016 17.228 20.5227 17.228C18.8438 17.228 17.4828 15.8251 17.4828 14.0945C17.4828 12.3639 18.8438 10.9609 20.5227 10.9609C22.2016 10.9609 23.5626 12.3639 23.5626 14.0945Z" stroke="#B0DFF4" shape-rendering="crispEdges"/>
<path d="M33.4218 14.0945C33.4218 15.8251 32.0608 17.228 30.3819 17.228C28.703 17.228 27.342 15.8251 27.342 14.0945C27.342 12.3639 28.703 10.9609 30.3819 10.9609C32.0608 10.9609 33.4218 12.3639 33.4218 14.0945Z" stroke="#B0DFF4" shape-rendering="crispEdges"/>
</g>
<defs>
<filter id="filter0_d_46_31" x="0.5" y="0.5" width="40" height="31.6826" filterUnits="userSpaceOnUse" color-interpolation-filters="sRGB">
<feFlood flood-opacity="0" result="BackgroundImageFix"/>
<feColorMatrix in="SourceAlpha" type="matrix" values="0 0 0 0 0 0 0 0 0 0 0 0 0 0 0 0 0 0 127 0" result="hardAlpha"/>
<feOffset/>
<feGaussianBlur stdDeviation="1"/>
<feComposite in2="hardAlpha" operator="out"/>
<feColorMatrix type="matrix" values="0 0 0 0 0.690196 0 0 0 0 0.87451 0 0 0 0 0.956863 0 0 0 1 0"/>
<feBlend mode="normal" in2="BackgroundImageFix" result="effect1_dropShadow_46_31"/>
<feBlend mode="normal" in="SourceGraphic" in2="effect1_dropShadow_46_31" result="shape"/>
</filter>
</defs>
</svg>
